<?xml version="1.0" standalone="no"?>
<!DOCTYPE svg PUBLIC "-//W3C//DTD SVG 20010904//EN"
 "http://www.w3.org/TR/2001/REC-SVG-20010904/DTD/svg10.dtd">
<svg version="1.0" xmlns="http://www.w3.org/2000/svg"
 width="1132.000000pt" height="450.000000pt" viewBox="0 0 1132.000000 450.000000"
 preserveAspectRatio="xMidYMid meet">

<g transform="translate(0.000000,450.000000) scale(0.100000,-0.100000)"
fill="#000000" stroke="none">
<path d="M2240 4494 c-314 -28 -574 -99 -837 -228 -674 -332 -1121 -945 -1239
-1701 -23 -151 -23 -479 0 -630 103 -658 453 -1205 1001 -1568 190 -126 487
-253 715 -306 327 -76 695 -76 1025 1 634 147 1198 592 1487 1173 166 332 240
646 240 1015 0 590 -218 1135 -622 1554 -354 367 -800 597 -1303 671 -108 15
-381 27 -467 19z m40 -133 c384 -109 647 -408 760 -861 118 -470 73 -1055
-120 -1587 -38 -104 -127 -295 -170 -365 -30 -48 -30 -51 -13 -64 123 -97 385
-195 643 -240 127 -23 357 -22 465 0 99 21 228 82 277 133 56 58 103 144 129
236 33 116 33 342 1 505 -80 402 -275 838 -577 1292 -264 397 -607 749 -880
905 -94 53 -81 57 75 21 532 -122 1004 -449 1312 -911 87 -131 189 -344 241
-502 76 -233 107 -425 107 -671 0 -290 -44 -523 -151 -799 -37 -95 -45 -106
-115 -173 -162 -154 -346 -240 -575 -270 -356 -46 -825 103 -1246 396 -342
238 -677 593 -843 892 -28 50 -32 50 -144 -16 -278 -166 -556 -494 -661 -782
-38 -105 -46 -259 -16 -342 132 -377 760 -609 1646 -610 627 0 1195 115 1539
312 48 28 90 49 93 46 10 -10 -294 -304 -379 -367 -378 -280 -826 -429 -1288
-429 -580 0 -1145 242 -1542 659 -150 158 -203 233 -227 321 -155 569 208
1136 970 1514 377 188 838 306 1191 306 l97 0 7 47 c15 104 -14 321 -71 519
-97 335 -300 621 -493 695 -347 133 -831 -194 -1276 -861 -265 -396 -466 -832
-571 -1235 -47 -181 -66 -297 -74 -460 l-7 -140 -38 115 c-247 744 -56 1570
494 2143 317 331 721 545 1185 628 130 23 167 23 245 0z"/>
<path d="M7032 3552 c-9 -6 -12 -26 -10 -58 l3 -49 55 0 55 0 0 55 0 55 -45 3
c-25 1 -51 -2 -58 -6z"/>
<path d="M5409 3541 c-51 -17 -68 -32 -85 -76 -20 -53 -15 -129 13 -176 19
-32 94 -73 193 -104 72 -23 80 -30 80 -76 0 -21 -6 -41 -12 -46 -7 -4 -71 -10
-143 -13 l-130 -5 -3 -42 -3 -41 68 -8 c111 -14 229 -9 273 11 49 22 74 71 74
145 0 108 -45 152 -201 199 -98 29 -129 75 -83 121 18 18 33 20 140 20 l120 0
0 39 c0 28 -5 41 -17 46 -27 11 -254 16 -284 6z"/>
<path d="M8920 3450 c0 -55 -2 -100 -4 -100 -2 0 -20 7 -39 15 -53 22 -145 19
-185 -5 -48 -30 -65 -77 -65 -190 -1 -99 19 -168 56 -198 45 -38 156 -31 213
13 41 31 42 31 46 -2 3 -26 7 -28 51 -31 l47 -3 0 300 0 301 -60 0 -60 0 0
-100z m-37 -161 l37 -10 0 -99 c0 -97 -1 -100 -27 -117 -35 -23 -97 -23 -120
0 -15 14 -18 35 -18 108 0 83 2 92 24 110 26 22 50 23 104 8z"/>
<path d="M10098 3433 l-3 -58 -37 -3 c-37 -3 -38 -4 -38 -43 0 -39 0 -39 40
-39 l40 0 0 -139 c0 -131 1 -142 23 -166 12 -15 38 -30 57 -34 36 -7 135 0
146 12 3 3 3 22 0 42 -6 31 -10 35 -37 35 -65 0 -69 9 -69 135 l0 115 60 0 60
0 0 40 0 40 -60 0 -60 0 0 60 0 60 -60 0 -59 0 -3 -57z"/>
<path d="M5901 3366 c-73 -26 -106 -101 -99 -227 6 -97 27 -136 91 -168 39
-19 63 -23 128 -23 44 0 103 6 131 12 48 12 50 13 44 42 -3 17 -6 33 -6 37 0
3 -49 6 -110 6 -118 0 -133 6 -145 57 l-7 26 117 4 c114 3 117 4 141 31 52 60
20 176 -56 203 -45 16 -185 16 -229 0z m170 -76 c13 -8 19 -21 19 -46 0 -42
-24 -54 -106 -54 l-54 0 0 34 c0 60 81 98 141 66z"/>
<path d="M6480 3369 c-13 -6 -39 -21 -56 -34 l-32 -25 -7 30 c-6 28 -9 30 -56
30 l-49 0 2 -207 3 -208 60 0 60 0 3 147 3 148 29 15 c41 21 87 19 100 -4 5
-11 10 -84 10 -166 l0 -146 58 3 57 3 3 146 3 147 33 16 c40 19 77 21 94 4 8
-8 12 -59 12 -165 l0 -153 61 0 60 0 -3 191 -3 191 -29 25 c-26 22 -37 25 -90
21 -46 -3 -71 -11 -101 -31 -39 -26 -40 -27 -55 -8 -8 10 -25 24 -37 30 -26
13 -99 13 -133 0z"/>
<path d="M7315 3366 c-73 -33 -99 -98 -93 -225 5 -107 27 -150 91 -176 49 -20
171 -23 236 -5 37 10 42 14 37 33 -3 12 -6 29 -6 38 0 13 -15 15 -96 15 -89
-1 -97 1 -115 23 -22 27 -27 133 -7 175 15 34 38 40 130 38 l77 -2 7 36 c4 22
2 40 -5 47 -18 18 -219 21 -256 3z"/>
<path d="M7723 3359 c-61 -30 -85 -85 -85 -192 -1 -163 54 -220 212 -220 160
0 210 52 210 218 0 118 -20 163 -82 194 -62 30 -195 30 -255 0z m191 -89 c24
-24 33 -130 14 -185 -10 -31 -20 -41 -45 -49 -55 -15 -96 3 -111 49 -17 51 -9
161 14 186 29 32 93 32 128 -1z"/>
<path d="M8342 3365 c-18 -8 -47 -24 -63 -36 l-29 -21 -6 31 c-6 30 -9 31 -55
31 l-49 0 0 -210 0 -210 60 0 60 0 0 145 0 146 43 19 c56 26 103 26 117 1 5
-11 10 -84 10 -165 l0 -146 61 0 60 0 -3 191 -3 191 -28 24 c-23 19 -39 24
-85 24 -31 -1 -72 -7 -90 -15z"/>
<path d="M9695 3361 c-66 -34 -80 -68 -80 -196 0 -130 13 -163 77 -196 48 -24
173 -29 247 -9 37 10 42 14 37 33 -3 12 -6 30 -6 40 0 16 -7 17 -64 11 -131
-13 -168 11 -169 113 -1 112 17 128 139 125 l82 -1 7 36 c4 22 2 40 -5 47 -6
6 -57 12 -118 14 -92 3 -113 0 -147 -17z"/>
<path d="M10470 3358 c-56 -29 -79 -72 -87 -165 -4 -49 -1 -85 10 -124 27 -93
74 -121 202 -121 154 0 205 44 213 183 8 139 -27 216 -109 239 -64 19 -180 12
-229 -12z m193 -90 c13 -16 17 -39 17 -105 0 -77 -2 -86 -26 -110 -22 -21 -32
-25 -66 -20 -59 8 -72 26 -76 106 -5 87 10 136 46 150 36 13 83 4 105 -21z"/>
<path d="M11092 3370 c-12 -5 -39 -21 -60 -35 l-37 -25 -5 27 c-5 25 -10 28
-53 31 l-47 3 0 -210 0 -211 60 0 59 0 3 146 3 147 45 13 c25 8 62 14 83 14
36 0 37 1 37 39 0 22 3 46 6 55 5 13 -1 16 -32 15 -22 0 -49 -4 -62 -9z"/>
<path d="M7020 3160 l0 -210 60 0 60 0 0 210 0 210 -60 0 -60 0 0 -210z"/>
<path d="M9132 3185 l3 -185 28 -27 c39 -40 120 -39 197 3 30 16 58 30 62 32
4 2 8 -9 10 -25 3 -26 7 -28 51 -31 l47 -3 0 210 0 211 -60 0 -60 0 0 -146 0
-145 -35 -15 c-42 -17 -97 -18 -113 -2 -8 8 -12 58 -12 160 l0 148 -61 0 -60
0 3 -185z"/>
<path d="M5343 2544 c-10 -4 -13 -73 -13 -295 l0 -289 60 0 59 0 3 113 3 112
62 3 c82 4 94 -9 124 -132 l23 -96 63 0 c38 0 63 4 63 11 0 22 -53 195 -66
216 -7 12 -23 24 -34 28 -29 9 -25 19 15 34 46 16 65 55 65 131 0 75 -19 119
-63 145 -28 17 -53 20 -192 22 -88 1 -166 0 -172 -3z m286 -108 c28 -25 29
-94 2 -127 -17 -22 -27 -24 -98 -24 l-78 0 -3 74 c-2 41 0 81 3 89 8 22 146
13 174 -12z"/>
<path d="M8480 2255 l0 -295 60 0 60 0 0 140 c0 139 0 140 26 156 34 23 123
31 135 13 5 -8 9 -80 9 -161 l0 -148 60 0 60 0 0 175 c0 206 -6 228 -70 245
-52 14 -103 5 -168 -32 l-53 -29 3 63 c1 35 1 87 0 116 l-2 52 -60 0 -60 0 0
-295z"/>
<path d="M5965 2376 c-84 -24 -125 -90 -125 -204 0 -113 36 -181 112 -209 70
-25 273 -9 285 23 3 8 2 25 -1 39 -6 25 -7 25 -112 23 -105 -3 -106 -3 -130
25 -43 50 -34 57 64 57 154 0 192 23 192 116 0 57 -22 94 -70 119 -42 22 -156
27 -215 11z m154 -90 c7 -8 11 -30 9 -48 l-3 -33 -77 -3 -78 -3 0 31 c0 46 31
70 89 70 30 0 53 -5 60 -14z"/>
<path d="M6420 2384 c-96 -18 -131 -80 -99 -173 14 -39 56 -61 159 -86 84 -20
100 -29 100 -56 0 -24 -21 -28 -150 -32 l-105 -2 -3 -37 -3 -36 76 -7 c99 -10
212 -2 250 16 59 28 72 143 22 189 -12 12 -46 28 -77 36 -30 9 -79 22 -107 30
-45 12 -53 18 -53 38 0 32 14 36 141 36 l109 0 0 34 c0 24 -5 36 -17 40 -27 7
-214 15 -243 10z"/>
<path d="M6892 2380 c-96 -20 -132 -78 -132 -213 0 -153 50 -207 195 -215 76
-4 190 11 199 26 2 4 1 22 -2 41 l-5 34 -81 -6 c-91 -8 -151 4 -166 33 -23 44
-16 48 100 52 103 3 112 5 136 29 56 57 36 166 -37 202 -44 21 -147 30 -207
17z m142 -96 c19 -18 21 -55 4 -72 -7 -7 -41 -12 -85 -12 l-72 0 6 33 c9 51
29 67 84 67 30 0 53 -6 63 -16z"/>
<path d="M7375 2384 c-16 -2 -54 -7 -82 -10 -47 -5 -53 -8 -53 -29 0 -54 4
-56 123 -54 97 1 112 -1 124 -17 8 -11 12 -28 11 -39 -3 -18 -12 -20 -116 -25
-109 -5 -115 -6 -138 -33 -20 -23 -24 -39 -24 -92 0 -57 3 -68 29 -97 28 -31
33 -33 99 -33 63 0 75 3 116 32 l47 33 6 -30 c5 -28 8 -30 54 -30 l49 0 0 160
c0 183 -9 219 -61 246 -33 17 -127 26 -184 18z m123 -271 c3 -28 -2 -36 -30
-53 -23 -14 -46 -20 -78 -18 -45 3 -45 3 -48 43 -5 53 15 67 93 63 60 -3 60
-3 63 -35z"/>
<path d="M7929 2376 c-20 -7 -52 -22 -71 -34 -20 -12 -38 -22 -40 -22 -3 0 -8
14 -11 30 -6 28 -9 30 -52 30 l-45 0 0 -210 0 -210 60 0 60 0 0 144 0 144 44
11 c25 6 61 11 81 11 39 0 41 2 49 73 5 44 4 47 -17 47 -12 -1 -38 -7 -58 -14z"/>
<path d="M8167 2376 c-93 -25 -122 -82 -115 -230 4 -102 15 -128 70 -169 30
-22 128 -33 211 -23 71 9 87 22 80 64 l-5 32 -94 0 c-111 0 -128 11 -138 86
-9 63 10 124 44 141 14 7 59 13 101 13 l77 0 6 31 c3 17 6 35 6 39 0 10 -114
30 -161 29 -19 0 -55 -6 -82 -13z"/>
<path d="M8832 1561 c-9 -5 -12 -25 -10 -57 l3 -49 55 0 55 0 3 49 c4 56 -5
66 -58 66 -19 0 -41 -4 -48 -9z"/>
<path d="M5476 1549 c-127 -31 -173 -142 -155 -371 15 -184 111 -248 331 -220
50 6 92 12 93 14 2 2 1 23 -2 48 l-5 45 -102 -3 c-118 -4 -149 5 -172 50 -24
46 -25 239 -1 284 22 43 36 47 157 54 l105 5 3 41 c2 31 -1 43 -13 48 -30 11
-200 15 -239 5z"/>
<path d="M8520 1440 l0 -60 -40 0 -40 0 0 -40 0 -40 40 0 40 0 0 -140 0 -140
29 -32 c29 -32 32 -33 106 -32 42 1 81 6 87 12 6 6 8 25 4 46 -6 34 -9 36 -44
36 -21 0 -43 5 -50 12 -8 8 -12 50 -12 125 l0 113 60 0 60 0 0 40 0 40 -60 0
-60 0 0 60 0 60 -60 0 -60 0 0 -60z"/>
<path d="M5907 1375 c-83 -29 -107 -76 -107 -210 0 -100 26 -161 80 -187 82
-40 232 -31 289 18 39 32 54 80 54 173 1 126 -34 187 -118 210 -54 15 -152 13
-198 -4z m167 -94 c20 -22 32 -112 22 -166 -10 -51 -37 -75 -86 -75 -51 0 -75
24 -84 84 -10 61 2 134 25 157 26 26 100 26 123 0z"/>
<path d="M6509 1376 c-20 -7 -50 -22 -66 -34 -33 -24 -43 -20 -43 15 0 21 -4
23 -50 23 l-50 0 0 -210 0 -210 60 0 60 0 0 144 0 143 58 17 c32 9 70 16 84
16 22 0 26 6 32 38 10 65 8 72 -21 72 -16 -1 -44 -7 -64 -14z"/>
<path d="M6857 1375 c-22 -7 -49 -23 -61 -34 -25 -24 -36 -19 -36 16 0 21 -4
23 -50 23 l-50 0 0 -290 0 -290 60 0 60 0 0 95 0 96 33 -18 c49 -26 167 -24
204 3 44 33 64 102 60 209 -7 174 -83 239 -220 190z m59 -83 c24 -16 34 -54
34 -129 0 -101 -13 -123 -75 -123 -24 0 -55 4 -69 10 -26 9 -26 11 -26 110 l0
101 43 19 c44 21 75 25 93 12z"/>
<path d="M7253 1380 c-80 -25 -121 -114 -110 -242 10 -115 59 -171 164 -184
66 -8 160 7 198 32 48 31 60 69 60 184 0 120 -15 159 -75 194 -39 23 -182 32
-237 16z m163 -94 c16 -12 20 -29 22 -103 3 -78 1 -91 -18 -116 -27 -33 -85
-37 -121 -8 -22 18 -24 27 -24 109 0 74 3 94 19 111 23 25 91 29 122 7z"/>
<path d="M7834 1366 c-28 -13 -55 -29 -58 -35 -12 -19 -23 -12 -29 19 -6 28
-9 30 -52 30 l-45 0 0 -210 0 -210 60 0 60 0 0 145 0 144 52 16 c28 8 67 15
85 15 32 0 33 1 33 39 0 22 3 46 6 55 9 25 -51 20 -112 -8z"/>
<path d="M8095 1384 c-95 -13 -91 -10 -87 -54 l4 -40 102 7 c120 7 146 -2 146
-47 l0 -30 -82 0 c-110 0 -154 -13 -179 -53 -28 -44 -21 -138 12 -173 52 -56
149 -56 223 1 l44 33 6 -34 c7 -33 8 -34 56 -34 l50 0 -1 153 c-1 244 -18 271
-172 273 -51 1 -105 0 -122 -2z m165 -269 c0 -41 -28 -64 -88 -72 -60 -8 -90
35 -62 88 9 16 22 19 80 19 l70 0 0 -35z"/>
<path d="M9127 1376 c-80 -30 -107 -81 -107 -206 0 -96 21 -157 63 -185 36
-24 135 -39 200 -31 117 15 162 77 161 221 0 111 -22 162 -81 191 -49 24 -183
30 -236 10z m169 -97 c16 -17 19 -37 19 -111 0 -82 -2 -91 -24 -109 -27 -22
-89 -25 -116 -5 -37 27 -37 205 0 232 30 22 99 18 121 -7z"/>
<path d="M9736 1376 c-22 -8 -52 -24 -67 -35 -36 -27 -36 -27 -44 9 -6 28 -9
30 -56 30 l-49 0 0 -210 0 -210 60 0 60 0 0 145 0 145 38 16 c54 23 99 29 117
14 12 -10 15 -41 15 -166 l0 -154 61 0 60 0 -3 190 c-3 180 -4 191 -25 211
-28 28 -111 35 -167 15z"/>
<path d="M8820 1170 l0 -210 60 0 60 0 0 210 0 210 -60 0 -60 0 0 -210z"/>
</g>
</svg>
